<?xml version="1.0" standalone="no"?>
<!DOCTYPE svg PUBLIC "-//W3C//DTD SVG 20010904//EN"
 "http://www.w3.org/TR/2001/REC-SVG-20010904/DTD/svg10.dtd">
<svg version="1.0" xmlns="http://www.w3.org/2000/svg"
 width="512.000000pt" height="512.000000pt" viewBox="0 0 512.000000 512.000000"
 preserveAspectRatio="xMidYMid meet">

<g transform="translate(0.000000,512.000000) scale(0.100000,-0.100000)"
fill="#000000" stroke="none">
<path d="M1716 4997 c-54 -71 -107 -154 -143 -224 -31 -62 -58 -113 -60 -113
-2 0 -25 11 -51 24 -77 38 -201 75 -323 96 -63 11 -119 20 -125 20 -21 0 -46
-225 -43 -385 l4 -150 -73 -7 c-40 -3 -105 -14 -145 -23 -94 -23 -287 -95
-287 -107 0 -5 18 -55 40 -111 91 -233 221 -406 410 -547 145 -107 295 -171
495 -210 126 -25 166 -43 216 -97 52 -54 200 -261 191 -266 -4 -3 -72 -26
-152 -52 -190 -63 -233 -64 -350 -11 -233 106 -391 141 -605 133 -229 -8 -408
-67 -610 -198 l-105 -69 56 -87 c54 -84 189 -253 203 -253 3 0 23 -17 44 -36
l38 -36 -48 -51 c-27 -29 -69 -81 -94 -117 -49 -69 -149 -250 -149 -269 0 -16
201 -114 295 -144 44 -14 108 -30 141 -37 l62 -12 -14 -51 c-25 -94 -36 -238
-29 -364 l7 -121 76 4 c125 8 235 23 314 44 316 83 597 311 747 607 61 122
102 151 313 217 65 20 124 39 133 42 13 5 15 -15 15 -158 0 -223 -5 -236 -126
-374 -53 -60 -116 -139 -140 -176 -145 -218 -216 -513 -185 -768 12 -93 55
-284 70 -309 17 -27 297 65 423 140 36 21 69 39 72 39 3 0 23 -31 46 -70 51
-87 138 -195 224 -280 l66 -64 66 64 c86 85 173 193 224 280 23 39 43 70 46
70 3 0 36 -18 73 -39 127 -75 405 -167 422 -140 15 25 58 216 70 309 31 254
-40 551 -185 768 -24 37 -87 116 -140 176 -121 138 -126 151 -126 374 0 143 2
163 15 158 9 -3 68 -22 133 -42 210 -66 254 -97 317 -224 122 -243 348 -449
607 -553 136 -56 252 -79 450 -91 l76 -4 7 121 c7 126 -4 270 -29 364 l-14 51
62 12 c135 26 436 151 436 181 0 20 -111 218 -157 281 -25 34 -66 83 -90 109
l-44 47 60 53 c79 72 156 165 225 272 l56 87 -102 67 c-199 131 -386 192 -613
200 -214 8 -372 -27 -605 -133 -117 -53 -160 -52 -350 11 -80 26 -148 49 -152
52 -9 5 139 212 191 266 50 54 90 72 216 97 184 36 305 84 445 175 144 94 286
244 370 391 42 74 130 276 130 300 0 14 -187 84 -287 109 -40 9 -105 20 -145
23 l-73 7 4 150 c3 163 -22 385 -44 385 -6 0 -63 -9 -126 -20 -124 -22 -247
-59 -321 -96 -26 -13 -49 -24 -52 -24 -2 0 -27 47 -55 104 -42 88 -108 185
-218 324 l-18 22 -85 -69 c-352 -284 -511 -667 -456 -1100 23 -187 24 -186
-196 -491 l-18 -24 -17 24 c-146 201 -192 275 -202 318 -7 36 -6 81 5 178 43
362 -65 703 -306 958 -48 51 -195 180 -226 199 -6 3 -48 -42 -98 -106z m217
-445 c106 -181 142 -371 113 -600 -31 -245 -6 -317 219 -630 l35 -49 -65 -38
c-35 -21 -90 -60 -120 -88 -31 -27 -60 -46 -64 -41 -4 5 -43 58 -87 119 -43
60 -104 135 -135 166 -67 67 -171 122 -274 145 -248 54 -311 77 -422 151 -119
79 -269 241 -245 265 20 20 225 14 375 -11 76 -13 141 -21 144 -18 3 3 -20 71
-51 151 -57 150 -90 280 -84 336 l3 32 90 -46 c55 -28 141 -88 220 -151 71
-57 131 -102 133 -100 2 2 16 79 32 172 25 151 56 259 91 324 l12 23 23 -27
c13 -15 38 -53 57 -85z m1377 17 c20 -52 41 -143 60 -251 15 -93 30 -171 32
-173 2 -2 62 43 133 101 82 66 163 121 220 150 l90 46 3 -32 c6 -56 -27 -186
-84 -336 -31 -80 -54 -148 -51 -151 3 -3 68 5 144 18 151 25 355 31 375 11 15
-15 -52 -102 -141 -184 -120 -109 -269 -183 -436 -213 -244 -44 -338 -107
-499 -330 -44 -61 -83 -114 -87 -119 -4 -5 -33 14 -64 41 -30 28 -85 67 -120
88 l-65 38 35 49 c228 317 247 371 218 638 -24 215 0 364 84 535 41 84 100
168 113 160 5 -3 23 -42 40 -86z m-644 -1566 c101 -34 176 -99 221 -192 23
-48 27 -69 28 -146 0 -79 -4 -98 -29 -152 -35 -76 -104 -144 -184 -181 -48
-22 -71 -27 -142 -27 -71 0 -94 5 -142 27 -80 37 -149 105 -184 181 -25 54
-29 73 -29 152 1 77 5 98 28 145 81 166 267 249 433 193z m-1682 -358 c33 -9
109 -39 169 -66 150 -67 206 -83 307 -82 90 0 143 12 323 70 60 19 111 32 114
30 2 -3 11 -35 18 -73 8 -37 28 -97 45 -132 17 -36 27 -69 23 -72 -4 -4 -78
-30 -163 -59 -85 -29 -180 -68 -211 -87 -73 -44 -158 -136 -205 -222 -131
-240 -269 -372 -477 -458 -106 -44 -118 -44 -111 -1 13 77 61 202 125 326 38
73 69 135 69 137 0 2 -84 1 -187 -2 -182 -7 -305 3 -342 26 -25 15 121 146
272 243 75 49 137 92 137 95 0 4 -70 42 -154 85 -148 75 -294 177 -288 202 3
12 54 30 141 50 85 19 310 13 395 -10z m3609 -6 c43 -13 79 -28 80 -34 3 -26
-143 -128 -289 -202 -84 -43 -154 -81 -154 -84 0 -3 61 -46 137 -94 149 -97
298 -231 272 -245 -44 -24 -161 -33 -341 -26 -103 3 -188 4 -188 2 0 -2 31
-64 69 -137 67 -128 110 -240 125 -321 9 -49 -2 -49 -111 -4 -209 86 -346 218
-478 461 -51 94 -160 201 -245 242 -36 18 -123 51 -195 74 -71 23 -134 45
-138 49 -4 3 6 36 23 72 17 35 37 95 45 132 7 38 16 70 18 73 3 2 54 -11 114
-30 180 -58 233 -70 323 -70 101 -1 157 15 308 82 172 78 233 91 417 86 101
-2 147 -8 208 -26z m-2033 -634 c41 0 91 3 111 7 l37 6 4 -191 c4 -159 9 -203
26 -258 28 -84 79 -163 174 -266 166 -180 240 -347 255 -577 6 -95 5 -99 -13
-92 -62 23 -144 87 -266 205 -76 74 -140 132 -141 130 -2 -2 -20 -69 -41 -149
-37 -142 -123 -350 -145 -350 -12 0 -55 76 -85 150 -13 31 -40 121 -61 200
-21 80 -40 147 -42 149 -1 2 -65 -56 -141 -130 -122 -118 -204 -182 -266 -205
-18 -7 -19 -3 -13 92 15 230 89 397 255 577 95 103 146 182 174 266 17 55 22
99 26 258 l4 191 37 -6 c20 -4 70 -7 111 -7z"/>
</g>
</svg>
